<?xml version="1.0" encoding="UTF-8"?>
<!DOCTYPE svg PUBLIC "-//W3C//DTD SVG 1.1//EN" "http://www.w3.org/Graphics/SVG/1.1/DTD/svg11.dtd">
<!-- Creator: CorelDRAW -->
<svg xmlns="http://www.w3.org/2000/svg" xml:space="preserve" width="11.9034mm" height="8.4493mm" style="shape-rendering:geometricPrecision; text-rendering:geometricPrecision; image-rendering:optimizeQuality; fill-rule:evenodd; clip-rule:evenodd"
viewBox="0 0 11.6564 8.274"
 xmlns:xlink="http://www.w3.org/1999/xlink">
 <defs>
  <style type="text/css">
   <![CDATA[
    .fil0 {fill:#FBFBFB}
   ]]>
  </style>
 </defs>
 <g id="Слой_x0020_1">
  <metadata id="CorelCorpID_0Corel-Layer"/>
  <path class="fil0" d="M7.8397 7.05845l-4.01004 0c-0.053663,0.338919 -0.226501,0.647482 -0.487374,0.870359 -0.260971,0.22278 -0.592839,0.345186 -0.935871,0.345186 -0.34313,0 -0.674999,-0.122407 -0.935969,-0.345186 -0.260873,-0.222878 -0.433711,-0.53144 -0.487374,-0.870359l-0.501867 0c-0.128282,-0.000881327 -0.250884,-0.0524879 -0.341074,-0.143558 -0.0901891,-0.0911684 -0.140621,-0.21426 -0.140131,-0.342542l0 -6.08605c-0.000489626,-0.128282 0.0498439,-0.251472 0.140033,-0.34264 0.0901891,-0.0911684 0.212889,-0.142873 0.341172,-0.143656l6.62004 0c0.128282,0.000783402 0.250884,0.0524879 0.341074,0.143656 0.0901891,0.0911684 0.140425,0.214358 0.139837,0.34264l0 0.493543 1.84501 0c0.0208581,-9.79252e-005 0.0415203,0.00264398 0.0616929,0.00802987 0.595875,0.0518024 0.895624,0.362715 1.21173,0.896995l0.922162 1.57895c0.0219353,0.0374074 0.0335884,0.0801028 0.0336863,0.123582l0 3.22781c0.000293776,0.064141 -0.0249709,0.125638 -0.0701145,0.171271 -0.0450456,0.0455352 -0.106445,0.0713875 -0.170586,0.0716813l-0.729151 0c-0.053663,0.338919 -0.226501,0.647482 -0.487374,0.870359 -0.260971,0.22278 -0.592839,0.345284 -0.935969,0.345284 -0.343032,0 -0.674901,-0.122504 -0.935871,-0.345284 -0.260873,-0.222878 -0.433711,-0.53144 -0.487374,-0.870359l-0.000293776 0.000293776zm0.46064 -0.243246c0.00205643,0.189877 0.060224,0.374858 0.167256,0.531832 0.106934,0.156876 0.258033,0.278597 0.434005,0.349887 0.17607,0.0712896 0.369276,0.0889161 0.555236,0.0506273 0.186058,-0.0382888 0.356546,-0.13073 0.490214,-0.265769 0.13357,-0.134941 0.224249,-0.306408 0.260579,-0.492858 0.0363303,-0.18645 0.0166473,-0.379362 -0.0564049,-0.554746 -0.0731502,-0.175188 -0.196438,-0.324916 -0.354489,-0.430283 -0.157953,-0.10527 -0.34362,-0.161577 -0.533595,-0.161675 -0.256564,0.00166473 -0.502063,0.105074 -0.682539,0.287411 -0.180476,0.182435 -0.281241,0.428913 -0.280262,0.685575zm-6.85663 0c0.00205643,0.189877 0.060224,0.374858 0.167158,0.531832 0.107032,0.156876 0.258033,0.278597 0.434103,0.349887 0.17607,0.0712896 0.369178,0.0889161 0.555236,0.0506273 0.186058,-0.0382888 0.356546,-0.13073 0.490116,-0.265769 0.13357,-0.134941 0.224249,-0.306408 0.260579,-0.492858 0.0363303,-0.18645 0.0167452,-0.379362 -0.0564049,-0.554746 -0.0730522,-0.175188 -0.19634,-0.324916 -0.354391,-0.430283 -0.158051,-0.10527 -0.343718,-0.161577 -0.533595,-0.161675 -0.256662,0.0015668 -0.502161,0.104878 -0.682735,0.287313 -0.180574,0.182435 -0.281339,0.42901 -0.28036,0.685673l0.000293776 0zm9.24238 -0.24305l0.488647 0 0 -1.45566 -0.708881 0c-0.0317278,-9.79252e-005 -0.0631618,-0.00646307 -0.0924414,-0.0188016 -0.0292796,-0.0122407 -0.0559153,-0.0302589 -0.0782423,-0.0527817 -0.0224249,-0.0226207 -0.0400514,-0.0493543 -0.0520962,-0.0787319 -0.0119469,-0.0294755 -0.0180182,-0.0609095 -0.0179203,-0.0927352l0 -0.478463c-9.79252e-005,-0.186743 0.0713875,-0.366436 0.199474,-0.502161l-1.65268 0c-0.0200747,0 -0.0399535,-0.00254606 -0.0593427,-0.00754024 -0.182631,-0.0162556 -0.352433,-0.100471 -0.475917,-0.235902 -0.123484,-0.135529 -0.19164,-0.312479 -0.191052,-0.495795l0 -1.2177c-9.79252e-005,-0.0317278 0.00597344,-0.0632597 0.0179203,-0.0927352 0.0120448,-0.0293776 0.0297693,-0.0561112 0.0520962,-0.0787319 0.022327,-0.0226207 0.0489626,-0.040541 0.0782423,-0.0528796 0.0292796,-0.0123386 0.0607136,-0.0187037 0.0924414,-0.0188996l1.67971 0c-0.0892099,-0.082551 -0.194773,-0.145517 -0.309738,-0.184785 -0.115062,-0.039268 -0.237077,-0.0538589 -0.358211,-0.0429892l-1.71594 0 0 5.10621 0.257543 0c0.053663,-0.338919 0.226501,-0.647482 0.487472,-0.870359 0.260873,-0.222878 0.592741,-0.345186 0.935871,-0.345186 0.34313,0 0.674999,0.122309 0.935871,0.345186 0.260873,0.222878 0.433711,0.53144 0.487472,0.870359l-0.000293776 0.00107718zm-6.85663 0l3.27158 0 0 -6.08615 -6.61984 0 0 6.08615 0.501867 0c0.053663,-0.338919 0.226501,-0.64758 0.487374,-0.870457 0.260971,-0.22278 0.592839,-0.345186 0.935969,-0.345186 0.343032,0 0.674901,0.122407 0.935871,0.345186 0.260873,0.222878 0.433711,0.531538 0.487374,0.870457l-0.00019585 0zm6.8768 -2.17649l0 0.235608 0.468474 0 0 -0.478561 -0.227774 0c-0.0639452,0.000391701 -0.125148,0.026146 -0.170194,0.0714854 -0.0450456,0.0454373 -0.0703103,0.106739 -0.0702124,0.170782l-0.000293776 0.000685477zm-2.17972 -1.2415c-0.000293776,0.0654141 0.0253626,0.128282 0.0713875,0.174797 0.0460249,0.0465145 0.108599,0.0728564 0.174013,0.073346 0.0165494,0 0.0330008,0.00176265 0.0491585,0.00519004l2.2088 0 -0.716617 -1.227 -1.78782 0 0.00107718 0.973671zm0.0240896 3.66152c-0.000783402,-0.189779 0.0738356,-0.372214 0.207406,-0.507057 0.133472,-0.134941 0.315025,-0.211323 0.504805,-0.212498 0.0645327,0 0.126324,0.0256564 0.171859,0.0711916 0.0456332,0.0456332 0.0711916,0.107326 0.0711916,0.171859 0,0.0644348 -0.0255585,0.126226 -0.0711916,0.171859 -0.0455352,0.0455352 -0.107326,0.0711916 -0.171859,0.0711916 -0.0461228,-0.000489626 -0.0914622,0.0129261 -0.130045,0.0382888 -0.0385825,0.0253626 -0.0688414,0.061595 -0.0867618,0.104192 -0.0180182,0.0424996 -0.0229145,0.0895037 -0.0141992,0.134941 0.00881327,0.0453394 0.0308464,0.0870555 0.0633576,0.11986 0.0325112,0.032805 0.0741294,0.0552298 0.119371,0.0644348 0.0453394,0.00920497 0.0922456,0.00470041 0.135039,-0.0129261 0.0426954,-0.0175286 0.0792215,-0.0474937 0.104976,-0.0858804 0.0256564,-0.0383867 0.0394639,-0.0835302 0.0394639,-0.129751 0,-0.0637493 0.0252647,-0.124953 0.0704082,-0.170096 0.0451435,-0.0451435 0.106347,-0.0704082 0.170096,-0.0704082 0.0638473,0 0.125051,0.0252647 0.170096,0.0704082 0.0451435,0.0451435 0.0705062,0.106347 0.0705062,0.170096 0,0.188996 -0.0751087,0.370255 -0.208679,0.503825 -0.133668,0.133668 -0.31483,0.208679 -0.503825,0.208679 -0.188996,0 -0.370255,-0.0750107 -0.503825,-0.208679 -0.133668,-0.13357 -0.208679,-0.31483 -0.208679,-0.503825l0.000489626 0.000293776zm-6.85663 0c-0.000783402,-0.189779 0.0738356,-0.372214 0.207308,-0.507057 0.13357,-0.134941 0.315123,-0.211323 0.504903,-0.212498 0.0644348,0 0.126324,0.0256564 0.171859,0.0711916 0.0456332,0.0456332 0.0711916,0.107326 0.0711916,0.171859 0,0.0644348 -0.0255585,0.126226 -0.0711916,0.171859 -0.0455352,0.0455352 -0.107424,0.0711916 -0.171859,0.0711916 -0.0462207,-0.000489626 -0.0914622,0.0129261 -0.130045,0.0382888 -0.0386805,0.0253626 -0.0688414,0.061595 -0.0868597,0.104192 -0.0179203,0.0424996 -0.0229145,0.0895037 -0.0141012,0.134941 0.00871535,0.0453394 0.0308464,0.0870555 0.0633576,0.11986 0.0325112,0.032805 0.0740315,0.0552298 0.119371,0.0644348 0.0452415,0.00920497 0.0922456,0.00470041 0.134941,-0.0129261 0.0427933,-0.0175286 0.0793194,-0.0474937 0.105074,-0.0858804 0.0256564,-0.0383867 0.0393659,-0.0835302 0.0393659,-0.129751 0,-0.0637493 0.0253626,-0.124953 0.0705062,-0.170096 0.0451435,-0.0451435 0.106249,-0.0704082 0.170096,-0.0704082 0.0638473,0 0.125051,0.0252647 0.170096,0.0704082 0.0451435,0.0451435 0.0705062,0.106347 0.0705062,0.170096 0,0.188996 -0.0751087,0.370255 -0.208679,0.503825 -0.133668,0.133668 -0.314928,0.208679 -0.503825,0.208679 -0.188996,0 -0.370255,-0.0750107 -0.503825,-0.208679 -0.133668,-0.13357 -0.208679,-0.31483 -0.208679,-0.503825l0.000489626 0.000293776zm-0.4814 -5.34926c-0.0644348,0 -0.126324,-0.0255585 -0.171859,-0.0711916 -0.0455352,-0.0455352 -0.0711916,-0.107424 -0.0711916,-0.171859 0,-0.0644348 0.0256564,-0.126324 0.0711916,-0.171859 0.0455352,-0.0455352 0.107424,-0.0711916 0.171859,-0.0711916l5.15596 0c0.0644348,0 0.126226,0.0256564 0.171859,0.0711916 0.0455352,0.0455352 0.0711916,0.107424 0.0711916,0.171859 0,0.0644348 -0.0256564,0.126324 -0.0711916,0.171859 -0.0456332,0.0456332 -0.107424,0.0711916 -0.171859,0.0711916l-5.15596 0z"/>
 </g>
</svg>
