<?xml version="1.0" encoding="UTF-8"?>
<!DOCTYPE svg PUBLIC "-//W3C//DTD SVG 1.1//EN" "http://www.w3.org/Graphics/SVG/1.1/DTD/svg11.dtd">
<!-- Creator: CorelDRAW -->
<svg xmlns="http://www.w3.org/2000/svg" xml:space="preserve" width="12.2966mm" height="8.9955mm" style="shape-rendering:geometricPrecision; text-rendering:geometricPrecision; image-rendering:optimizeQuality; fill-rule:evenodd; clip-rule:evenodd"
viewBox="0 0 12.2966 8.9955"
 xmlns:xlink="http://www.w3.org/1999/xlink">
 <defs>
  <style type="text/css">
   <![CDATA[
    .fil0 {fill:#FBFBFB}
   ]]>
  </style>
 </defs>
 <g id="Слой_x0020_1">
  <metadata id="CorelCorpID_0Corel-Layer"/>
  <path class="fil0" d="M0.8016 8.0558c0,0.0103 -0.0001,0.0277 -0.0001,0.0292 0,0.5026 2.3601,0.9105 5.2703,0.9105 2.9103,0 5.2704,-0.4078 5.2704,-0.9105l0.0291 -3.6434c0.5237,-0.0791 0.9253,-0.5313 0.9253,-1.077 0,-0.6014 -0.4877,-1.0892 -1.0892,-1.0892 -0.6014,0 -1.0892,0.4878 -1.0892,1.0892 0,0.2334 0.0736,0.4501 0.1987,0.6276l-1.5923 0.7088 -2.2203 -2.6323c0.3625,-0.1769 0.6122,-0.5492 0.6122,-0.9794 0,-0.6016 -0.4877,-1.0893 -1.0892,-1.0893 -0.6015,0 -1.0892,0.4877 -1.0892,1.0893 0,0.4504 0.2737,0.8372 0.664,1.0031l-2.1955 2.6113c-0.559,-0.1796 -1.0806,-0.3555 -1.673,-0.5363 0.2607,-0.1988 0.4465,-0.5238 0.4449,-0.8512 -0.0028,-0.6013 -0.4878,-1.0892 -1.0892,-1.0892 -0.6015,0 -1.0893,0.4878 -1.0893,1.0892 0,0.5024 0.3393,0.9309 0.8016,1.0589l0 3.7098m10.4058 -5.4465c0.401,0 0.7262,0.3252 0.7262,0.7262 0,0.401 -0.3252,0.7262 -0.7262,0.7262 -0.401,0 -0.7262,-0.3252 -0.7262,-0.7262 0,-0.401 0.3252,-0.7262 0.7262,-0.7262zm-9.8845 1.99c0.7948,0.2723 1.5897,0.5444 2.3846,0.8165 0.7869,-0.9497 1.5738,-1.8993 2.3607,-2.8491 0.7991,0.9656 1.5981,1.9311 2.3971,2.8966l2.3846 -1.1007 0 3.2912c-0.662,-0.528 -2.6513,-0.7137 -4.7781,-0.7141 -2.0923,-0.0004 -3.9992,0.1848 -4.7489,0.7207l0 -3.0611zm4.7044 -4.2653c0.401,0 0.7261,0.3252 0.7261,0.7262 0,0.4009 -0.3251,0.7262 -0.7261,0.7262 -0.4009,0 -0.7262,-0.3253 -0.7262,-0.7262 0,-0.401 0.3253,-0.7262 0.7262,-0.7262m0.0446 8.2783c2.6223,0 4.749,-0.2493 4.749,-0.5566 0,-0.5429 -2.4172,-0.7836 -4.7793,-0.7995 -2.423,-0.0162 -4.7187,0.3205 -4.7187,0.7995 0,0.3073 2.1266,0.5566 4.749,0.5566zm-4.9826 -6.0515c-0.401,0 -0.7262,0.3253 -0.7262,0.7262 0,0.401 0.3252,0.7262 0.7262,0.7262 0.401,0 0.7261,-0.3252 0.7261,-0.7262 0,-0.4009 -0.3251,-0.7262 -0.7261,-0.7262z"/>
 </g>
</svg>
