<?xml version="1.0" encoding="UTF-8"?>
<!DOCTYPE svg PUBLIC "-//W3C//DTD SVG 1.1//EN" "http://www.w3.org/Graphics/SVG/1.1/DTD/svg11.dtd">
<!-- Creator: CorelDRAW -->
<svg xmlns="http://www.w3.org/2000/svg" xml:space="preserve" width="10.7428mm" height="10.623mm" style="shape-rendering:geometricPrecision; text-rendering:geometricPrecision; image-rendering:optimizeQuality; fill-rule:evenodd; clip-rule:evenodd"
viewBox="0 0 10.7428 10.623"
 xmlns:xlink="http://www.w3.org/1999/xlink">
 <defs>
  <style type="text/css">
   <![CDATA[
    .fil0 {fill:#FBFBFB}
   ]]>
  </style>
 </defs>
 <g id="Слой_x0020_1">
  <metadata id="CorelCorpID_0Corel-Layer"/>
  <path class="fil0" d="M6.4274 0.0433l0.484 1.3253 1.2541 -0.6463 0.0016 1.4108 1.3996 -0.1785 -0.4811 1.3263 1.3762 0.311 -0.9057 1.0818 1.1867 0.763 -1.2209 0.7068 0.8542 1.1228 -1.3891 0.2465 0.4187 1.3473 -1.3896 -0.2434 -0.0674 1.4092 -1.2225 -0.704 -0.5453 1.3011 -0.9082 -1.0797 -0.9573 1.0364 -0.484 -1.3253 -1.2541 0.6463 -0.0016 -1.4108 -1.3996 0.1785 0.4811 -1.3263 -1.3762 -0.311 0.9057 -1.0818 -1.1867 -0.763 1.2209 -0.7068 -0.8542 -1.1228 1.3891 -0.2465 -0.4187 -1.3473 1.3896 0.2434 0.0674 -1.4092 1.2225 0.704 0.5453 -1.3011 0.9082 1.0797 0.9573 -1.0364zm-0.132 0.6586l0.4235 1.1596 1.0974 -0.5656 0.0013 1.2346 1.2247 -0.1563 -0.421 1.1605 1.2042 0.2723 -0.7925 0.9465 1.0384 0.6676 -1.0683 0.6184 0.7474 0.9823 -1.2155 0.2159 0.3664 1.1788 -1.2159 -0.213 -0.0589 1.233 -1.0699 -0.616 -0.477 1.1386 -0.7945 -0.9448 -0.8378 0.9068 -0.4235 -1.1596 -1.0974 0.5656 -0.0013 -1.2346 -1.2247 0.1563 0.421 -1.1605 -1.2042 -0.2723 0.7925 -0.9465 -1.0384 -0.6676 1.0683 -0.6184 -0.7474 -0.9823 1.2155 -0.2159 -0.3664 -1.1788 1.2159 0.213 0.0589 -1.233 1.0699 0.616 0.477 -1.1386 0.7945 0.9448 0.8378 -0.9068zm0.1214 5.4734c0,0.3019 0.0347,0.5042 0.104,0.6059 0.0529,0.0779 0.1264,0.1168 0.2195,0.1168 0.0952,0 0.1677,-0.0379 0.2186,-0.1136 0.0692,-0.1039 0.1038,-0.3072 0.1038,-0.6091 0,-0.3018 -0.0335,-0.5052 -0.1005,-0.608 -0.0531,-0.0768 -0.1267,-0.1146 -0.2219,-0.1146 -0.0952,0 -0.1687,0.0378 -0.2195,0.1146 -0.0693,0.1028 -0.104,0.3062 -0.104,0.608zm-0.6944 0.0033c0,-0.4165 0.092,-0.7249 0.2747,-0.925 0.1829,-0.2012 0.4327,-0.3019 0.7498,-0.3019 0.3179,0 0.5691,0.1007 0.7518,0.3019 0.1829,0.2001 0.2749,0.5085 0.2749,0.925 0,0.4186 -0.092,0.7281 -0.2749,0.9293 -0.1827,0.2002 -0.4306,0.3008 -0.7432,0.3008 -0.3235,0 -0.5755,-0.1006 -0.7584,-0.3008 -0.1827,-0.2012 -0.2747,-0.5107 -0.2747,-0.9293zm-1.2118 1.4714l-0.6587 0 2.4753 -4.903 0.6403 0 -2.4569 4.903zm-1.4802 -3.2293c0,-0.4165 0.0908,-0.7248 0.2736,-0.9261 0.1829,-0.2001 0.4306,-0.3007 0.7432,-0.3007 0.3236,0 0.5768,0.0995 0.7596,0.2997 0.1828,0.199 0.2737,0.5085 0.2737,0.9271 0,0.4155 -0.0909,0.7249 -0.2737,0.925 -0.1828,0.2012 -0.4307,0.3008 -0.7433,0.3008 -0.3235,0 -0.5766,-0.0996 -0.7595,-0.2987 -0.1828,-0.2001 -0.2736,-0.5095 -0.2736,-0.9271zm0.6935 -0.0065c0,0.3019 0.0356,0.5052 0.1049,0.608 0.0529,0.0768 0.1255,0.1147 0.2184,0.1147 0.0952,0 0.1688,-0.0379 0.2219,-0.1147 0.0682,-0.1028 0.1017,-0.3061 0.1017,-0.608 0,-0.3029 -0.0335,-0.5041 -0.1017,-0.6058 -0.0531,-0.0779 -0.1267,-0.1169 -0.2219,-0.1169 -0.0929,0 -0.1655,0.0379 -0.2184,0.1136 -0.0693,0.1039 -0.1049,0.3062 -0.1049,0.6091z"/>
 </g>
</svg>
